<svg width="167" height="31" viewBox="0 0 167 31" fill="none" xmlns="http://www.w3.org/2000/svg">
<path d="M21.0277 1.01172H21.5277C25.6574 1.01172 29.0179 4.3722 29.0179 8.50194V22.0396C29.0179 26.1691 25.6574 29.5296 21.5279 29.5296H7.99022C3.86047 29.5296 0.5 26.1691 0.5 22.0396V8.50194C0.5 4.3722 3.86048 1.01172 7.99022 1.01172H21.0277ZM21.5277 28.7991C25.2555 28.7991 28.2874 25.7672 28.2874 22.0396V8.50194C28.2874 4.77412 25.2555 1.74218 21.5279 1.74218H7.99022C4.26239 1.74218 1.23046 4.7741 1.23046 8.50194V22.0396C1.23046 25.7672 4.2624 28.7991 7.99022 28.7991H21.5277Z" fill="white" stroke="white"/>
<path d="M7.18787 15.2708C7.18787 11.0964 10.5846 7.69971 14.7589 7.69971C18.9333 7.69971 22.33 11.0964 22.33 15.2708C22.33 19.4451 18.9333 22.8419 14.7589 22.8419C10.5846 22.8419 7.18787 19.4451 7.18787 15.2708ZM7.91833 15.2708C7.91833 19.0432 10.9867 22.1114 14.7589 22.1114C18.5314 22.1114 21.5995 19.0432 21.5995 15.2708C21.5995 11.4986 18.5314 8.43017 14.7589 8.43017C10.9867 8.43017 7.91833 11.4986 7.91833 15.2708Z" fill="white" stroke="white"/>
<path d="M21.1381 6.71791C21.1381 5.67906 21.984 4.83301 23.023 4.83301C24.0621 4.83301 24.9082 5.67893 24.9082 6.71791C24.9082 7.75696 24.0621 8.60305 23.023 8.60305C21.984 8.60305 21.1381 7.75702 21.1381 6.71791ZM21.8686 6.71791C21.8686 7.35483 22.3861 7.87236 23.023 7.87236C23.6601 7.87236 24.1777 7.35495 24.1777 6.71791C24.1777 6.08055 23.6599 5.56347 23.023 5.56347C22.3862 5.56347 21.8686 6.08066 21.8686 6.71791Z" fill="white" stroke="white"/>
<path d="M61.7834 23.2229L62.0535 23.3997L64.9923 25.3231L64.9933 25.3237C65.1666 25.4377 65.3773 25.5 65.5921 25.5C65.6638 25.5 65.736 25.4929 65.8071 25.4788C66.0905 25.422 66.3375 25.2544 66.4864 25.0274L78.9348 5.325L78.9362 5.32288C79.0589 5.13077 79.0434 4.88622 78.8901 4.70677L61.7834 23.2229ZM61.7834 23.2229L61.5111 23.3963M61.7834 23.2229L61.5111 23.3963M61.5111 23.3963L58.5237 25.2983C58.5236 25.2984 58.5234 25.2985 58.5232 25.2986C58.2755 25.4551 57.9583 25.469 57.6961 25.3338L61.5111 23.3963ZM65.2526 24.6455L65.6777 24.9237L65.9491 24.4942L77.2955 6.53644L78.0584 5.32889L76.7089 5.79698L51.3679 14.5867L50.4071 14.92L51.2577 15.4773L54.5847 17.6573L54.8265 17.8157L55.0845 17.6852L69.1928 10.5442L69.1928 10.5442C69.552 10.3623 69.9725 10.4784 70.1781 10.7907C70.3764 11.0922 70.3091 11.4772 69.9975 11.7005C69.9975 11.7005 69.9975 11.7005 69.9975 11.7005L58.2547 20.1166L58.046 20.2662V20.523V23.851V24.7621L58.8145 24.2728L61.3659 22.6484L61.366 22.6483C61.4928 22.5676 61.6379 22.5269 61.7835 22.5269C61.9327 22.5269 62.0808 22.5694 62.2088 22.6533L62.2092 22.6536L65.2526 24.6455Z" fill="white" stroke="white"/>
<path d="M124.49 4.60381L124.49 4.60379C121.88 1.99376 118.413 0.557617 114.721 0.557617H114.721H114.721H114.721H114.721H114.721H114.721H114.721H114.721H114.721H114.721H114.721H114.721H114.721H114.721H114.721H114.721H114.721H114.721H114.721H114.721H114.721H114.721H114.721H114.721H114.721H114.721H114.721H114.721H114.721H114.721H114.721H114.721H114.721H114.721H114.721H114.721H114.721H114.721H114.721H114.721H114.721H114.721H114.721H114.721H114.721H114.721H114.721H114.721H114.721H114.721H114.721H114.721H114.721H114.721H114.721H114.721H114.721H114.721H114.721H114.721H114.721H114.721H114.721H114.721H114.721H114.721H114.721H114.721H114.721H114.721H114.721H114.721H114.721H114.721H114.721H114.721H114.721H114.721H114.721H114.721H114.721H114.721H114.721H114.721H114.721H114.721H114.721H114.721H114.721H114.721H114.721H114.721H114.721H114.721H114.721H114.721H114.721H114.721H114.721H114.721H114.721H114.721H114.721H114.721H114.721H114.721H114.72H114.72H114.72H114.72H114.72H114.72H114.72H114.72H114.72H114.72H114.72H114.72H114.72H114.72H114.72H114.72H114.72H114.72H114.72H114.72H114.72H114.72H114.72H114.72H114.72H114.72H114.72H114.72H114.72H114.72H114.72H114.72H114.72H114.72H114.72H114.72H114.72H114.72H114.72L124.49 4.60381ZM124.49 4.60381C127.1 7.2136 128.536 10.6811 128.536 14.3723C128.536 18.0632 127.1 21.5307 124.49 24.1405M124.49 4.60381V24.1405M109.434 1.60818L109.434 1.60819C107.751 2.30523 106.244 3.31262 104.953 4.60379C102.343 7.21359 100.907 10.6811 100.907 14.372C100.907 16.5726 101.438 18.7599 102.444 20.7078L102.543 20.8991L102.472 21.1024L100.066 27.9759C100.066 27.976 100.066 27.976 100.066 27.9761C99.9594 28.2798 100.034 28.605 100.261 28.8323L100.261 28.8326C100.421 28.9929 100.629 29.0756 100.841 29.0756C100.932 29.0756 101.025 29.0603 101.118 29.0279L107.991 26.6221L108.194 26.551L108.386 26.6498C110.334 27.6555 112.521 28.1867 114.721 28.1867C118.412 28.1867 121.88 26.7503 124.49 24.1405C124.49 24.1405 124.49 24.1405 124.49 24.1405M109.434 1.60818L129.036 14.3723C129.036 18.1958 127.547 21.7905 124.843 24.4941L124.49 24.1405M109.434 1.60818C111.116 0.911157 112.894 0.557842 114.72 0.557617L109.434 1.60818ZM107.916 25.8738L107.916 25.8738L101.671 28.0594L100.691 28.4024L101.034 27.4223L103.22 21.1775C103.295 20.9618 103.277 20.7192 103.168 20.5138C103.168 20.5138 103.168 20.5138 103.168 20.5137L103.609 20.2789L107.916 25.8738ZM107.916 25.8738C108.131 25.7984 108.374 25.8165 108.579 25.9257M107.916 25.8738L123.973 23.6234M123.973 23.6234C121.502 26.094 118.215 27.4553 114.721 27.4553C112.584 27.4553 110.46 26.9268 108.579 25.9257M123.973 23.6234C123.973 23.6234 123.973 23.6234 123.973 23.6234M123.973 23.6234L123.973 23.6234M108.579 25.9257L108.814 25.4843L108.58 25.9258C108.58 25.9257 108.58 25.9257 108.579 25.9257ZM123.973 23.6234C126.443 21.153 127.805 17.8658 127.805 14.372C127.805 10.8783 126.443 7.59126 123.973 5.12091V23.6234Z" fill="white" stroke="white"/>
<path d="M107.895 12.7724C107.11 10.9403 107.25 9.68194 107.914 9.01766L109.467 7.4651C109.93 7.00187 110.685 7.00187 111.148 7.4651L113.089 9.40591L113.089 9.40597C113.552 9.86919 113.552 10.624 113.089 11.0873L113.089 11.0873L112.369 11.8075L112.104 12.072L112.283 12.4004C113.304 14.2731 114.821 15.7896 116.693 16.8101L117.022 16.989L117.286 16.7246L118.006 16.0044C118.47 15.5412 119.224 15.5412 119.688 16.0044C119.688 16.0044 119.688 16.0044 119.688 16.0044L121.629 17.9454L121.629 17.9455C121.854 18.1706 121.977 18.4674 121.977 18.7861C121.977 19.0979 121.859 19.3891 121.643 19.6127L121.629 19.6266L120.076 21.1794C120.076 21.1794 120.076 21.1794 120.076 21.1794C119.722 21.5335 119.216 21.7338 118.541 21.7338C117.923 21.7338 117.176 21.5647 116.321 21.1984C114.756 20.5274 113.006 19.2848 111.408 17.686C109.809 16.0872 108.566 14.3379 107.895 12.7724ZM107.895 12.7724L107.436 12.9692L107.895 12.7724ZM116.61 20.5264L116.61 20.5265C117.328 20.8343 117.924 20.9788 118.398 21.0016C118.85 21.0233 119.284 20.9372 119.559 20.6623L121.082 19.1397L121.435 18.7862L121.082 18.4326L119.201 16.5514L118.847 16.1979L118.493 16.5514L117.592 17.4529L117.592 17.453C117.337 17.7079 116.953 17.7684 116.634 17.6056C114.404 16.4683 112.625 14.6897 111.488 12.4595L111.488 12.4595C111.325 12.1406 111.386 11.7568 111.641 11.5019L111.641 11.5018L112.542 10.6001L112.896 10.2466L112.542 9.89308L110.661 8.01195L110.308 7.65836L109.954 8.01193L108.431 9.53476C108.156 9.80967 108.07 10.2441 108.092 10.6954C108.115 11.1698 108.26 11.766 108.567 12.4844C109.217 13.9997 110.415 15.659 111.925 17.1689C113.435 18.6788 115.094 19.877 116.61 20.5264Z" fill="white" stroke="white"/>
<path d="M153.787 17.2086V17.7086V28.5448C153.787 29.0718 154.216 29.5 154.74 29.5H159.537C160.061 29.5 160.49 29.0717 160.49 28.5448V17.7084V17.2084H160.99H164.41C164.934 17.2084 165.363 16.7801 165.363 16.2536V16.2534L165.365 11.6103C165.365 11.6102 165.365 11.6101 165.365 11.6101C165.365 11.2647 165.177 10.9437 164.873 10.7739L153.787 17.2086ZM153.787 17.2086H153.287M153.787 17.2086H153.287M153.287 17.2086H150.489C149.965 17.2086 149.536 16.7803 149.536 16.2534V11.61C149.536 11.083 149.965 10.6548 150.489 10.6548H153.287H153.787M153.287 17.2086L153.787 10.6548M153.787 10.6548V10.1548M153.787 10.6548V10.1548M153.787 10.1548V7.82959C153.787 5.62973 154.475 3.80164 155.735 2.50613L155.735 2.50612M153.787 10.1548L155.735 2.50612M155.735 2.50612C157.001 1.20587 158.783 0.500089 160.927 0.5C160.927 0.5 160.927 0.5 160.927 0.5L164.585 0.50595C164.585 0.50595 164.585 0.50595 164.585 0.50595C165.108 0.506873 165.536 0.935148 165.536 1.46118V5.7724C165.536 6.29963 165.107 6.72763 164.583 6.72763H164.583M155.735 2.50612L164.583 6.72763M164.583 6.72763L162.121 6.72855C162.12 6.72855 162.12 6.72855 162.12 6.72855C161.34 6.72857 160.954 6.87807 160.763 7.0943L160.762 7.09547M164.583 6.72763L160.762 7.09547M160.762 7.09547C160.645 7.22826 160.584 7.40007 160.548 7.57525C160.511 7.759 160.49 7.99953 160.49 8.31757V10.1546V10.6546M160.762 7.09547L160.49 10.6546M160.49 10.6546H160.99M160.49 10.6546H160.99M160.99 10.6546H164.398M160.99 10.6546H164.398M164.398 10.6546C164.573 10.6546 164.737 10.6979 164.873 10.7738L164.398 10.6546ZM154.543 28.2413V28.7413H155.043H159.234H159.734V28.2413V16.9212C159.734 16.6609 159.946 16.4496 160.204 16.4496H164.107H164.607L164.607 15.9498L164.609 11.9137L164.609 11.4135H164.109H160.203C159.946 11.4135 159.734 11.2024 159.734 10.9419V8.31757C159.734 7.64041 159.81 7.02977 160.196 6.59241L160.196 6.59232C160.662 6.06342 161.435 5.96982 162.12 5.96982H162.12L164.28 5.9689L164.78 5.96869V5.4689V1.76422V1.26504L164.582 1.26472V1.26468H164.582V1.26472L164.281 1.26422L160.927 1.25873H160.926C159.003 1.25873 157.393 1.87797 156.265 3.04201C155.139 4.20425 154.543 5.85708 154.543 7.82959V10.9419C154.543 11.2023 154.331 11.4135 154.073 11.4135H150.792H150.292V11.9135V15.9496V16.4496H150.792H154.073C154.331 16.4496 154.543 16.6607 154.543 16.9212V28.2413Z" fill="white" stroke="white"/>
</svg>
